<svg width="24" height="24" viewBox="0 0 24 24" fill="none" xmlns="http://www.w3.org/2000/svg">
<path d="M18.622 3.21696C18.7399 3.3106 18.8351 3.42965 18.9005 3.56523C18.966 3.70081 19 3.84941 19 3.99996V15.667C19 15.707 18.9977 15.7473 18.993 15.788C18.9977 15.858 19 15.9286 19 16C18.9997 16.6367 18.7967 17.2569 18.4206 17.7706C18.0444 18.2844 17.5145 18.6652 16.9076 18.8578C16.3007 19.0504 15.6482 19.045 15.0446 18.8422C14.441 18.6394 13.9176 18.2498 13.5501 17.7298C13.1826 17.2098 12.9901 16.5863 13.0004 15.9497C13.0107 15.313 13.2234 14.6961 13.6076 14.1883C13.9918 13.6805 14.5276 13.3081 15.1375 13.1251C15.7473 12.942 16.3997 12.9577 17 13.17V9.25996L9 11.127V18.003C8.99924 18.6396 8.79595 19.2596 8.41953 19.773C8.04312 20.2865 7.5131 20.6669 6.90616 20.8593C6.29923 21.0516 5.64684 21.0458 5.0434 20.8428C4.43996 20.6398 3.91676 20.25 3.54948 19.73C3.1822 19.2099 2.98991 18.5865 3.00041 17.9499C3.01091 17.3133 3.22367 16.6966 3.60789 16.1889C3.99212 15.6812 4.5279 15.309 5.13771 15.126C5.74752 14.943 6.39973 14.9587 7 15.171V6.33296C6.99997 6.10719 7.07635 5.88805 7.2167 5.7112C7.35705 5.53436 7.55312 5.41021 7.773 5.35896L17.773 3.02596C17.9183 2.99218 18.0694 2.99136 18.2151 3.02354C18.3608 3.05573 18.4974 3.1201 18.615 3.21196L18.622 3.21696Z" fill="white"/>
</svg>
